<svg xmlns="http://www.w3.org/2000/svg" viewBox="14087.999 5332 147.173 44.559">
  <defs>
    <style>
      .cls-1 {
        fill: #fff;
      }

      .cls-2 {
        fill: #f58b3e;
      }
    </style>
  </defs>
  <g id="Archer_Jordan_FBA-06" data-name="Archer Jordan FBA-06" transform="translate(14082.328 5325.398)">
    <path id="Path_236" data-name="Path 236" class="cls-1" d="M96.157,25.554l-1.51-3.987H87.458l-1.51,3.987H81.9L89.059,7.4h3.957l7.129,18.154H96.157M88.7,18.3h4.712l-2.326-6.132Z" transform="translate(-53.203 -0.557)"/>
    <path id="Path_237" data-name="Path 237" class="cls-1" d="M166.263,13.19c0,3.051-1.3,4.893-3.9,5.588l4.893,6.676h-4.531l-4.682-6.4h-3.262v6.4H151.1V7.3h8.367a12.415,12.415,0,0,1,2.6.242,6.914,6.914,0,0,1,2.145.846,3.763,3.763,0,0,1,1.54,1.812,7.9,7.9,0,0,1,.513,2.99m-11.478,2.628h4.742a3.8,3.8,0,0,0,2.265-.574,2.4,2.4,0,0,0,.755-2.054,2.3,2.3,0,0,0-.755-2.024,3.7,3.7,0,0,0-2.265-.574h-4.773v5.226Z" transform="translate(-101.5 -0.487)"/>
    <path id="Path_238" data-name="Path 238" class="cls-1" d="M219.2,21.976a4.377,4.377,0,0,0,4.078-2.568L226.3,21.16a8.255,8.255,0,0,1-13.26,1.389,9.569,9.569,0,0,1-2.447-6.615A9.592,9.592,0,0,1,213.04,9.29a8.276,8.276,0,0,1,13.291,1.389l-3.021,1.752a4.482,4.482,0,0,0-4.078-2.537,4.3,4.3,0,0,0-3.564,1.752,6.7,6.7,0,0,0-1.359,4.319,6.675,6.675,0,0,0,1.359,4.289,4.42,4.42,0,0,0,3.534,1.722" transform="translate(-143.021)"/>
    <path id="Path_239" data-name="Path 239" class="cls-1" d="M281.531,7.3h3.685V25.514h-3.685V17.751h-6.645v7.763H271.2V7.3h3.685v7.189h6.645V7.3" transform="translate(-185.323 -0.487)"/>
    <path id="Path_240" data-name="Path 240" class="cls-1" d="M334.685,22.222h9.062v3.292H331V7.3h12.6v3.292h-8.911v3.776H341.9v3.292h-7.219v4.561" transform="translate(-227.06 -0.487)"/>
    <path id="Path_241" data-name="Path 241" class="cls-1" d="M398.433,12.99c0,3.051-1.3,4.893-3.9,5.588l4.924,6.676h-4.531l-4.682-6.4h-3.262v6.4H383.3V7.1h8.367a12.415,12.415,0,0,1,2.6.242,6.471,6.471,0,0,1,2.114.846A3.762,3.762,0,0,1,397.92,10a7.154,7.154,0,0,1,.544,2.96m-11.478,2.658h4.773a3.8,3.8,0,0,0,2.266-.574,2.4,2.4,0,0,0,.755-2.054,2.443,2.443,0,0,0-.755-2.054,3.7,3.7,0,0,0-2.266-.574h-4.773Z" transform="translate(-263.562 -0.348)"/>
    <path id="Path_242" data-name="Path 242" class="cls-2" d="M93.029,93.1v13.14c0,1.933-.483,3.292-1.48,4.078a7.118,7.118,0,0,1-4.471,1.178,5.93,5.93,0,0,1-4.47-1.571,5.22,5.22,0,0,1-1.51-3.776h3.685c0,1.389.755,2.114,2.265,2.114s2.265-.665,2.265-1.994V93.1h3.715" transform="translate(-52.642 -60.371)"/>
    <path id="Path_243" data-name="Path 243" class="cls-2" d="M147.638,95.112a9.892,9.892,0,0,1,0,13.23,8.3,8.3,0,0,1-6.4,2.688,8.4,8.4,0,0,1-6.4-2.688,9.892,9.892,0,0,1,0-13.23,8.9,8.9,0,0,1,12.807,0m-2.628,10.9a6.4,6.4,0,0,0,1.45-4.319,6.479,6.479,0,0,0-1.45-4.289,4.982,4.982,0,0,0-7.038-.514,4.123,4.123,0,0,0-.514.514,6.375,6.375,0,0,0-1.45,4.289,6.613,6.613,0,0,0,1.45,4.319,4.982,4.982,0,0,0,7.038.513A4.122,4.122,0,0,0,145.01,106.017Z" transform="translate(-88.373 -59.876)"/>
    <path id="Path_244" data-name="Path 244" class="cls-2" d="M218.663,99.02c0,3.051-1.3,4.893-3.9,5.588l4.893,6.706h-4.531l-4.682-6.4h-3.262v6.4H203.5V93.1h8.367a12.414,12.414,0,0,1,2.6.242,6.529,6.529,0,0,1,2.114.876,3.763,3.763,0,0,1,1.541,1.812,7.2,7.2,0,0,1,.544,2.99m-11.478,2.6h4.773a3.8,3.8,0,0,0,2.265-.574,2.4,2.4,0,0,0,.755-2.054,2.443,2.443,0,0,0-.755-2.054,3.7,3.7,0,0,0-2.265-.574h-4.773Z" transform="translate(-138.073 -60.371)"/>
    <path id="Path_245" data-name="Path 245" class="cls-2" d="M272.983,93.086a8.28,8.28,0,0,1,6.313,2.6,9.752,9.752,0,0,1,0,12.989,8.325,8.325,0,0,1-6.313,2.6H266.7V93.086h6.283m-.121,14.922a4.754,4.754,0,0,0,3.806-1.661,5.97,5.97,0,0,0,1.45-4.168,6.069,6.069,0,0,0-1.45-4.168,4.949,4.949,0,0,0-3.806-1.661h-2.477v11.629Z" transform="translate(-182.182 -60.357)"/>
    <path id="Path_246" data-name="Path 246" class="cls-2" d="M334.127,111.384l-1.51-3.987h-7.189l-1.51,3.987H319.9L327.059,93.2h3.957l7.129,18.184h-4.017m-7.461-7.28h4.682l-2.326-6.162Z" transform="translate(-219.313 -60.44)"/>
    <path id="Path_247" data-name="Path 247" class="cls-2" d="M399.6,93.1h3.685v18.214H399.6l-6.917-11.75v11.75H389V93.1h3.685l6.917,11.75V93.1" transform="translate(-267.54 -60.371)"/>
    <path id="Path_248" data-name="Path 248" class="cls-1" d="M442.277,7.4v.453h-1v2.6H440.8v-2.6h-1V7.4h2.477" transform="translate(-302.996 -0.557)"/>
    <path id="Path_249" data-name="Path 249" class="cls-1" d="M450.313,10.451H449.8V7.4h.846l.816,2.386.816-2.386h.846v3.051h-.514v-2.6l-.936,2.6h-.423l-.936-2.6v2.6" transform="translate(-309.975 -0.557)"/>
    <path id="Path_250" data-name="Path 250" class="cls-1" d="M143.268,69.567H27.791L23.622,65.4H5.982s-.514-.03-.181.362c.272.393,4.2,4.44,4.2,4.44s-3.927,4.078-4.229,4.47.181.362.181.362H23.622l4.168-4.168H143.268Z" transform="translate(0 -41.036)"/>
    <path id="Path_251" data-name="Path 251" class="cls-1" d="M450.305,65.371s-.332-.091-.242.211,1.963,3.655,1.963,3.655.151.332-.06.3h-.121v1.269h.121c.211,0,.06.3.06.3s-1.843,3.383-1.963,3.655c-.091.3.242.211.242.211s12.656-4.622,12.687-4.833C462.962,69.962,450.305,65.371,450.305,65.371Z" transform="translate(-310.148 -41.008)"/>
  </g>
</svg>
