<svg id="Layer_1" data-name="Layer 1" xmlns="http://www.w3.org/2000/svg" viewBox="0 0 282.79 198.59"><defs><style>.cls-1{opacity:0.1;}.cls-2{fill:#f58a3e;}.cls-3{fill:#989898;}.cls-4{fill:#fff;}</style></defs><title>Artboard 1</title><circle id="_Path_" data-name="&lt;Path&gt;" class="cls-1" cx="144.63" cy="68.36" r="45.89"/><g id="_Group_" data-name="&lt;Group&gt;"><path id="_Compound_Path_" data-name="&lt;Compound Path&gt;" class="cls-2" d="M18,153.7V122.35H34.12a28.75,28.75,0,0,1,4.88.34,8.82,8.82,0,0,1,3.18,1.13,7.63,7.63,0,0,1,2.74,2.93,9.38,9.38,0,0,1-.24,8.64A8.33,8.33,0,0,1,42,138a7.53,7.53,0,0,1,2.7,2.38,8,8,0,0,1,1.22,4.52c0,3-.9,5.24-2.68,6.68s-4.44,2.13-8,2.13Zm16.31-6.5a4.29,4.29,0,0,0,2.78-.71,2.83,2.83,0,0,0,.78-2.24,2.88,2.88,0,0,0-.8-2.27,4.25,4.25,0,0,0-2.77-.72h-8.8v5.94Zm-.1-12.45A4.33,4.33,0,0,0,37,134a3.43,3.43,0,0,0,0-4.4,4.38,4.38,0,0,0-2.79-.71h-8.7v5.82Z"/><path id="_Path_2" data-name="&lt;Path&gt;" class="cls-2" d="M66.76,154a20.77,20.77,0,0,1-7-1,11.25,11.25,0,0,1-4.82-3.31,7.46,7.46,0,0,1-1.44-3.19,26,26,0,0,1-.42-5.32V122.35h7.49V141c0,2.66.46,4.51,1.38,5.51S64.45,148,66.76,148s3.93-.5,4.83-1.47S73,143.67,73,141V122.35h7.51v18.82a25.39,25.39,0,0,1-.43,5.24,7.6,7.6,0,0,1-1.47,3.27,11.27,11.27,0,0,1-4.8,3.32A20.59,20.59,0,0,1,66.76,154Z"/><path id="_Path_3" data-name="&lt;Path&gt;" class="cls-2" d="M101.38,153.7a21,21,0,0,1-6.47-.74A9.61,9.61,0,0,1,91,150.35a9.47,9.47,0,0,1-2.24-3.75,20.09,20.09,0,0,1-.64-5.72V122.35h7.51v18.33a19.64,19.64,0,0,0,.22,3.6,3.28,3.28,0,0,0,.68,1.48,4.43,4.43,0,0,0,2,1.35,11.12,11.12,0,0,0,3.45.42H110v6.18Z"/><path id="_Path_4" data-name="&lt;Path&gt;" class="cls-2" d="M128.14,153.7a21,21,0,0,1-6.47-.74,9.61,9.61,0,0,1-3.91-2.61,9.47,9.47,0,0,1-2.24-3.75,20.09,20.09,0,0,1-.64-5.72V122.35h7.51v18.33a19.64,19.64,0,0,0,.22,3.6,3.28,3.28,0,0,0,.68,1.48,4.43,4.43,0,0,0,2,1.35,11.12,11.12,0,0,0,3.45.42h8.06v6.18Z"/><path id="_Path_5" data-name="&lt;Path&gt;" class="cls-2" d="M141.87,153.7v-6.55h16.48a6.4,6.4,0,0,0,3.48-.68,2.44,2.44,0,0,0,.86-2.15,2.71,2.71,0,0,0-.8-2.23,5.27,5.27,0,0,0-3.12-.68h-7.5c-3.61,0-6.3-.75-8-2.23s-2.61-3.86-2.61-7c0-3.37.92-5.88,2.74-7.46s4.63-2.36,8.45-2.36H169v6.55H152.77a5.42,5.42,0,0,0-3.35.82,3,3,0,0,0-1,2.54,2.43,2.43,0,0,0,.79,2,4.15,4.15,0,0,0,2.63.69h8.4c3.66,0,6.22.69,7.81,2.12s2.4,3.78,2.4,7-.92,5.72-2.75,7.29-4.62,2.33-8.39,2.33Z"/><path id="_Path_6" data-name="&lt;Path&gt;" class="cls-2" d="M190.18,153.7a21,21,0,0,1-5.75-.63,11.77,11.77,0,0,1-4-2.15,11.89,11.89,0,0,1-3.66-5.06,20.13,20.13,0,0,1-1.2-7.31c0-5.46,1.22-9.57,3.62-12.21s6.18-4,11.19-4h11.13v6.42h-11a6.61,6.61,0,0,0-4.79,1.56,6.75,6.75,0,0,0-1.72,4.28l17.52,0V141H183.9a7.08,7.08,0,0,0,1.5,4.69c1,1,2.69,1.55,5.09,1.55h11v6.42Z"/><polygon id="_Path_7" data-name="&lt;Path&gt;" class="cls-2" points="215.93 153.7 215.93 139.97 203.89 122.34 212.46 122.34 219.6 133.38 226.84 122.34 235.64 122.34 223.44 139.97 223.44 153.7 215.93 153.7"/><path id="_Path_8" data-name="&lt;Path&gt;" class="cls-2" d="M251.42,153.7a21,21,0,0,1-5.75-.63,11.77,11.77,0,0,1-4-2.15,11.89,11.89,0,0,1-3.66-5.06,20.13,20.13,0,0,1-1.2-7.31c0-5.46,1.22-9.57,3.62-12.21s6.18-4,11.19-4h11.13v6.42h-11a6.61,6.61,0,0,0-4.79,1.56,6.75,6.75,0,0,0-1.72,4.28l17.52,0V141H245.14a7.08,7.08,0,0,0,1.5,4.69c1,1,2.69,1.55,5.09,1.55h11v6.42Z"/></g><g id="_Group_2" data-name="&lt;Group&gt;"><path id="_Compound_Path_2" data-name="&lt;Compound Path&gt;" class="cls-3" d="M37.17,165.79h1.07l.45,1.32a7.29,7.29,0,0,1,3.9-1.44,3.25,3.25,0,0,1,3,1.61A6.89,6.89,0,0,1,50,165.67a3.34,3.34,0,0,1,3.38,3.53v7.54H51.89v-7.54a1.84,1.84,0,0,0-1.85-2,6.53,6.53,0,0,0-4,1.15v8.39H44.47v-7.54a1.85,1.85,0,0,0-1.88-2,7.65,7.65,0,0,0-3.9,1.15v8.39H37.17Z"/><path id="_Compound_Path_3" data-name="&lt;Compound Path&gt;" class="cls-3" d="M56.92,172.88a2.55,2.55,0,0,1,2.74-2.74s4.58,0,4.58,0,0-1.36,0-1.38a1.48,1.48,0,0,0-1.69-1.69c-1.48,0-3.28.1-5.28.25V166.2a21.12,21.12,0,0,1,5.34-.62,2.88,2.88,0,0,1,3.15,3.17v8H64.63l-.39-1.32a13,13,0,0,1-4.58,1.44,2.59,2.59,0,0,1-2.74-2.72Zm2.74,2.45a18.67,18.67,0,0,0,4.58-1.05v-2.95l-4.58.33A1.24,1.24,0,0,0,58.44,173v1C58.44,175,59,175.34,59.66,175.34Z"/><path id="_Compound_Path_4" data-name="&lt;Compound Path&gt;" class="cls-3" d="M69.68,165.79h1.07l.45,1.38a7.78,7.78,0,0,1,4.08-1.5,4.78,4.78,0,0,1,1.53.17v1.5a8.48,8.48,0,0,0-1.53-.12,8.18,8.18,0,0,0-4.08,1.2v8.33H69.68Z"/><path id="_Compound_Path_5" data-name="&lt;Compound Path&gt;" class="cls-3" d="M80.11,160.62h1.53v9.07h.82l4.18-3.9h2.12l-4.87,4.66,4.87,6.29h-1.9l-4.41-5.52h-.82v5.52H80.11Z"/><path id="_Compound_Path_6" data-name="&lt;Compound Path&gt;" class="cls-3" d="M96,165.71c2.58,0,4.18.25,4.18,3.88,0,1.59-.85,2.51-2.82,2.51H92.76c0,2.58.47,3.22,2.08,3.22a36.7,36.7,0,0,0,5.15-.21v1.15a18.92,18.92,0,0,1-5.15.58c-2.78,0-3.61-1.34-3.61-5.63C91.24,166.33,92.64,165.71,96,165.71Zm1.36,4.89c.91,0,1.3-.33,1.3-1,0-2.16-.41-2.35-2.64-2.35s-3.28,0-3.28,3.36Z"/><path id="_Compound_Path_7" data-name="&lt;Compound Path&gt;" class="cls-3" d="M103.09,166.14l2-.37.37-3.05h1.15v3.05h3.2v1.53h-3.2v5.52c0,1.79.47,2.21,1.18,2.37,0,0,1.69.43,1.83.43v1.09h-1.81c-1.59,0-2.72-1-2.72-3.9V167.3h-2Z"/><path id="_Compound_Path_8" data-name="&lt;Compound Path&gt;" class="cls-3" d="M113.15,162.91a.46.46,0,0,1,.49-.52h1a.47.47,0,0,1,.47.52V164a.43.43,0,0,1-.47.47h-1a.46.46,0,0,1-.49-.47Zm.21,2.89h1.53v10.95h-1.53Z"/><path id="_Compound_Path_9" data-name="&lt;Compound Path&gt;" class="cls-3" d="M119.07,165.79h1.07l.45,1.28a7.67,7.67,0,0,1,4-1.46,3.32,3.32,0,0,1,3.38,3.5v7.63h-1.53v-7.63a1.76,1.76,0,0,0-1.86-2,8,8,0,0,0-4,1.17v8.43h-1.53Z"/><path id="_Compound_Path_10" data-name="&lt;Compound Path&gt;" class="cls-3" d="M132.9,172.66a3.57,3.57,0,0,1-1.2-3c0-2.62,1.36-3.9,3.57-3.9h6.43v1.15l-1.67.37a3.79,3.79,0,0,1,.64,2.37c0,1.24-.47,4-3.4,4h-3.22c-.33,0-.85.08-.85.62s.39.7.85.7h4.39a2.55,2.55,0,0,1,2.66,2.84v1.3c0,1.24-.39,3.17-3.09,3.17h-3.09a3,3,0,0,1-3.3-3.17v-1.75l.82-1.34a2,2,0,0,1-.76-1.67A1.67,1.67,0,0,1,132.9,172.66Zm2,8.12H138c1.22,0,1.57-.68,1.57-1.65v-1.2c0-1-.21-1.42-1.4-1.42h-4.1a2,2,0,0,1-.93-.17v2.78C133.15,180.63,134.2,180.78,134.92,180.78Zm.21-8.64h2c1.65,0,2-1.53,2-2.5-.06-1.44-.39-2.37-2-2.37h-1.85c-1.69,0-2,1.24-2,2.37S133.54,172.14,135.13,172.14Z"/><path id="_Compound_Path_11" data-name="&lt;Compound Path&gt;" class="cls-3" d="M151.8,165.79h1.09l.39,1.22a9.46,9.46,0,0,1,4.06-1.34c3,0,3.61,3,3.61,5.55,0,2.8-.5,5.69-3.61,5.69a12.78,12.78,0,0,1-4.06-.83v6.23H151.8Zm5.54,9.59c1.32,0,2.08-.8,2.08-4.16,0-2.68-.74-4-2.08-4a10.43,10.43,0,0,0-4.06.95v6.7A14.43,14.43,0,0,0,157.35,175.38Z"/><path id="_Compound_Path_12" data-name="&lt;Compound Path&gt;" class="cls-3" d="M164.87,160.6h1.53v12.25c0,1.79.47,2.21,1.17,2.37,0,0,1.69.43,1.83.43v1.09h-1.81c-1.59,0-2.72-1-2.72-3.9Z"/><path id="_Compound_Path_13" data-name="&lt;Compound Path&gt;" class="cls-3" d="M172.09,172.88a2.56,2.56,0,0,1,2.74-2.74s4.58,0,4.58,0,0-1.36,0-1.38a1.48,1.48,0,0,0-1.69-1.69c-1.48,0-3.28.1-5.28.25V166.2a21.12,21.12,0,0,1,5.34-.62,2.88,2.88,0,0,1,3.15,3.17v8H179.8l-.39-1.32a13,13,0,0,1-4.58,1.44,2.59,2.59,0,0,1-2.74-2.72Zm2.74,2.45a18.66,18.66,0,0,0,4.58-1.05v-2.95l-4.58.33a1.24,1.24,0,0,0-1.22,1.34v1C173.61,175,174.13,175.34,174.83,175.34Z"/><path id="_Compound_Path_14" data-name="&lt;Compound Path&gt;" class="cls-3" d="M184,166.14l2-.37.37-3.05h1.15v3.05h3.2v1.53h-3.2v5.52c0,1.79.47,2.21,1.17,2.37,0,0,1.69.43,1.83.43v1.09h-1.81c-1.59,0-2.72-1-2.72-3.9V167.3h-2Z"/><path id="_Compound_Path_15" data-name="&lt;Compound Path&gt;" class="cls-3" d="M193.47,166.14l2-.35v-2c0-1.11.06-3.22,2.54-3.22a9.43,9.43,0,0,1,2.89.5v1l-2.54,0c-1.32,0-1.36.74-1.36,1.73v2H200v1.53H197v9.42h-1.53v-9.42h-2Z"/><path id="_Compound_Path_16" data-name="&lt;Compound Path&gt;" class="cls-3" d="M208.18,165.69c3.69,0,4.82,1.38,4.82,5.73,0,4.06-1.13,5.42-4.82,5.42s-4.82-1.5-4.82-5.42C203.36,166.95,204.6,165.69,208.18,165.69Zm0,9.63c2.23,0,3.3-.29,3.3-3.9,0-3.92-.89-4.21-3.3-4.21s-3.3.27-3.3,4.21C204.89,175.07,206.06,175.31,208.18,175.31Z"/><path id="_Compound_Path_17" data-name="&lt;Compound Path&gt;" class="cls-3" d="M216.93,165.79H218l.45,1.38a7.77,7.77,0,0,1,4.08-1.5,4.77,4.77,0,0,1,1.53.17v1.5a8.47,8.47,0,0,0-1.53-.12,8.18,8.18,0,0,0-4.08,1.2v8.33h-1.53Z"/><path id="_Compound_Path_18" data-name="&lt;Compound Path&gt;" class="cls-3" d="M227.36,165.79h1.07l.45,1.32a7.29,7.29,0,0,1,3.9-1.44,3.25,3.25,0,0,1,3,1.61,6.9,6.9,0,0,1,4.41-1.61,3.34,3.34,0,0,1,3.38,3.53v7.54h-1.53v-7.54a1.84,1.84,0,0,0-1.86-2,6.54,6.54,0,0,0-4,1.15v8.39h-1.53v-7.54a1.85,1.85,0,0,0-1.88-2,7.65,7.65,0,0,0-3.9,1.15v8.39h-1.53Z"/></g><path id="_Path_9" data-name="&lt;Path&gt;" class="cls-2" d="M185.5,63.33q0,1.08-.06,2.17a45.88,45.88,0,0,1-43.7,43.68c-.7,0-1.42,0-2.13,0s-1.46,0-2.19,0a45.89,45.89,0,1,1,48-48C185.48,61.89,185.5,62.61,185.5,63.33Z"/><path id="_Path_10" data-name="&lt;Path&gt;" class="cls-4" d="M166.85,63.34q0,.64,0,1.29a27.23,27.23,0,0,1-25.93,25.92l-1.26,0-1.3,0a27.23,27.23,0,1,1,28.5-28.49C166.83,62.48,166.85,62.91,166.85,63.34Z"/><path id="_Path_11" data-name="&lt;Path&gt;" class="cls-2" d="M160.47,63.34q0,.49,0,1a20.85,20.85,0,0,1-19.86,19.85l-1,0-1,0a20.86,20.86,0,1,1,21.83-21.82C160.46,62.68,160.47,63,160.47,63.34Z"/><polygon id="_Path_12" data-name="&lt;Path&gt;" class="cls-4" points="139.42 63.14 111.44 53.56 115.93 60.98 23.07 65.3 59.67 65.29 115.93 65.29 111.44 72.71 139.42 63.14"/><circle id="_Path_13" data-name="&lt;Path&gt;" class="cls-4" cx="139.42" cy="63.14" r="6.65"/><g id="_Group_3" data-name="&lt;Group&gt;"><path id="_Compound_Path_19" data-name="&lt;Compound Path&gt;" class="cls-4" d="M139.62,102.82A39.48,39.48,0,1,1,179.1,63.34,39.52,39.52,0,0,1,139.62,102.82Zm0-72.85A33.37,33.37,0,1,0,173,63.34,33.4,33.4,0,0,0,139.62,30Z"/></g><polyline id="_Path_14" data-name="&lt;Path&gt;" class="cls-2" points="112.45 65.3 23.07 65.3 108.66 69.74"/><polygon id="_Path_15" data-name="&lt;Path&gt;" class="cls-2" points="139.42 63.14 98.38 77.22 105.59 90.57 139.42 63.14"/></svg>