<svg xmlns="http://www.w3.org/2000/svg" viewBox="10679.343 6386 36 36">
  <defs>
    <style>
      .cls-1 {
        fill: #f58a3e;
      }
    </style>
  </defs>
  <path id="Subtraction_25" data-name="Subtraction 25" class="cls-1" d="M-9861-5482h-26a5.005,5.005,0,0,1-5-5v-26a5.006,5.006,0,0,1,5-5h26a5.006,5.006,0,0,1,5,5v26A5.005,5.005,0,0,1-9861-5482Zm-17.28-16.43h0l-6.237,6.236a1.889,1.889,0,0,0,1.288.487h18.078a1.891,1.891,0,0,0,1.288-.487l-6.236-6.236-.172.124-.26.187c-.467.343-.844.613-1.135.8a6.938,6.938,0,0,1-1.161.591,3.593,3.593,0,0,1-1.351.3,3.6,3.6,0,0,1-1.376-.3,6.938,6.938,0,0,1-1.161-.591c-.291-.191-.668-.461-1.135-.8l-.334-.241Zm-6.915-5h0v9.486l5.494-5.494q-1.646-1.151-4.255-2.922a6.559,6.559,0,0,1-1.239-1.07Zm22.008,0h0a6.929,6.929,0,0,1-1.229,1.07q-2.511,1.7-4.266,2.924l5.494,5.492v-9.486Zm-20.044-5.576a1.767,1.767,0,0,0-1.455.638,2.491,2.491,0,0,0-.509,1.6,2.88,2.88,0,0,0,.676,1.678,6.158,6.158,0,0,0,1.435,1.417q.42.294,2.52,1.75l.14.1q1.046.725,1.837,1.279l1.241.866.184.129.2.145.139.1c.325.232.51.364.662.467.177.119.391.25.639.4a3.869,3.869,0,0,0,.707.33,1.911,1.911,0,0,0,.613.112,1.977,1.977,0,0,0,.641-.112,3.83,3.83,0,0,0,.705-.33c.251-.149.462-.28.638-.4s.4-.276.663-.467l.167-.121.171-.122.184-.132.437-.3.808-.561,1.687-1.171,2.819-1.957a5.826,5.826,0,0,0,1.5-1.509,3.285,3.285,0,0,0,.6-1.854,1.908,1.908,0,0,0-.583-1.39,1.919,1.919,0,0,0-1.383-.576Z" transform="translate(20571.344 11904)"/>
</svg>
