<svg xmlns="http://www.w3.org/2000/svg" viewBox="18737.344 5062 36 36">
  <defs>
    <style>
      .cls-1 {
        fill: #87aeb6;
      }

      .cls-2 {
        fill: #fff;
      }
    </style>
  </defs>
  <g id="black-back-closed-envelope-shape" transform="translate(18744.147 5071)">
    <rect id="Rectangle_562" data-name="Rectangle 562" class="cls-1" width="36" height="36" rx="5" transform="translate(-6.803 -9)"/>
    <g id="Group_917" data-name="Group 917" transform="translate(0 0)">
      <path id="Path_467" data-name="Path 467" class="cls-2" d="M36.312,330.248a1.881,1.881,0,0,0,1.288-.486l-6.235-6.236-.432.31q-.7.516-1.136.8a7,7,0,0,1-1.161.59,3.537,3.537,0,0,1-1.351.3h-.024a3.536,3.536,0,0,1-1.351-.3,6.979,6.979,0,0,1-1.161-.59q-.436-.288-1.136-.8c-.13-.1-.274-.2-.43-.312l-6.236,6.237a1.881,1.881,0,0,0,1.288.486Z" transform="translate(-16.269 -312.956)"/>
      <path id="Path_468" data-name="Path 468" class="cls-2" d="M1.241,199.624A6.511,6.511,0,0,1,0,198.555v9.487l5.5-5.5Q3.847,201.395,1.241,199.624Z" transform="translate(0 -192.979)"/>
      <path id="Path_469" data-name="Path 469" class="cls-2" d="M417.574,199.624q-2.509,1.7-4.265,2.925l5.494,5.494v-9.487A6.778,6.778,0,0,1,417.574,199.624Z" transform="translate(-396.794 -192.979)"/>
      <path id="Path_470" data-name="Path 470" class="cls-2" d="M20.049,59.013H1.971a1.754,1.754,0,0,0-1.455.638,2.478,2.478,0,0,0-.51,1.6,2.87,2.87,0,0,0,.675,1.677,6.093,6.093,0,0,0,1.437,1.418q.417.295,2.518,1.75c.756.524,1.413.98,1.978,1.374.481.335.9.626,1.24.867l.183.131.339.244q.4.289.663.467t.639.4a3.726,3.726,0,0,0,.706.332,1.954,1.954,0,0,0,.614.111h.024a1.955,1.955,0,0,0,.614-.111,3.718,3.718,0,0,0,.706-.332q.374-.221.639-.4t.663-.467l.338-.244.184-.131,1.243-.864,4.5-3.128a5.842,5.842,0,0,0,1.5-1.511,3.249,3.249,0,0,0,.6-1.854,1.981,1.981,0,0,0-1.965-1.965Z" transform="translate(-0.006 -59.013)"/>
    </g>
  </g>
</svg>
