<svg xmlns="http://www.w3.org/2000/svg" viewBox="10679.343 6206 36 36">
  <defs>
    <style>
      .cls-1 {
        fill: #f58a3e;
      }
    </style>
  </defs>
  <path id="Subtraction_23" data-name="Subtraction 23" class="cls-1" d="M-9861-5482h-26a5.005,5.005,0,0,1-5-5v-26a5.006,5.006,0,0,1,5-5h26a5.006,5.006,0,0,1,5,5v26A5.005,5.005,0,0,1-9861-5482Zm-19.545-27.887a1.663,1.663,0,0,0-1.167.529q-.319.315-.632.634c-.33.334-.66.667-1,.993a2.631,2.631,0,0,0-.834,1.792,7.682,7.682,0,0,0,.586,3.265,19.748,19.748,0,0,0,3.522,5.866,21.863,21.863,0,0,0,7.217,5.648,10.377,10.377,0,0,0,4,1.162c.087,0,.174.007.256.007a2.857,2.857,0,0,0,2.259-.963c.3-.342.636-.664.966-.984.2-.192.362-.352.523-.515a1.549,1.549,0,0,0,.008-2.371c-.869-.876-1.742-1.745-2.619-2.617a1.666,1.666,0,0,0-1.167-.533,1.66,1.66,0,0,0-1.164.533l-.133.132c-.5.5-1,1-1.493,1.5a.368.368,0,0,1-.262.141.389.389,0,0,1-.187-.059c-.135-.073-.273-.142-.412-.21a7.319,7.319,0,0,1-.653-.349,16.816,16.816,0,0,1-4.076-3.709,9.585,9.585,0,0,1-1.462-2.341.336.336,0,0,1,.084-.43c.461-.446.913-.9,1.367-1.362l.244-.247a1.553,1.553,0,0,0,0-2.386l-.71-.712-.568-.569-.329-.332c-.328-.331-.656-.662-.989-.989A1.677,1.677,0,0,0-9880.546-5509.887Zm7.48,1.284-.239,1.7a5.828,5.828,0,0,1,3.334,1.663,5.826,5.826,0,0,1,1.631,3.15l1.688-.288a7.559,7.559,0,0,0-2.11-4.076A7.506,7.506,0,0,0-9873.065-5508.6Zm.224-4.4-.239,1.7a10.812,10.812,0,0,1,6.174,3.079,10.793,10.793,0,0,1,3.029,5.839l1.69-.288a12.574,12.574,0,0,0-3.511-6.765A12.46,12.46,0,0,0-9872.842-5513Z" transform="translate(20571.344 11724)"/>
</svg>
