<svg xmlns="http://www.w3.org/2000/svg" viewBox="10679.343 6476 36 36">
  <defs>
    <style>
      .cls-1 {
        fill: #f58a3e;
      }
    </style>
  </defs>
  <path id="Subtraction_26" data-name="Subtraction 26" class="cls-1" d="M-9861-5482h-26a5.005,5.005,0,0,1-5-5v-26a5.006,5.006,0,0,1,5-5h26a5.006,5.006,0,0,1,5,5v26A5.005,5.005,0,0,1-9861-5482Zm-18.761-13.694v2.2a1.042,1.042,0,0,0,1.1,1.1h12.105l4.4,4.4V-5504.5a1.041,1.041,0,0,0-1.1-1.1h-2.2v9.905Zm-3.3-14.307a1.042,1.042,0,0,0-1.1,1.1v15.4l4.4-4.4h11a1.041,1.041,0,0,0,1.1-1.1v-9.9a1.042,1.042,0,0,0-1.1-1.1Z" transform="translate(20571.344 11994)"/>
</svg>
