<svg xmlns="http://www.w3.org/2000/svg" viewBox="18757.344 6205 36 36">
  <defs>
    <style>
      .cls-1 {
        fill: #87aeb6;
      }

      .cls-2 {
        fill: #fff;
      }
    </style>
  </defs>
  <g id="call_icon" data-name="call icon" transform="translate(18762.146 6210)">
    <rect id="Rectangle_559" data-name="Rectangle 559" class="cls-1" width="36" height="36" rx="5" transform="translate(-4.803 -5)"/>
    <g id="Group_916" data-name="Group 916" transform="translate(1 1)">
      <path id="Path_463" data-name="Path 463" class="cls-2" d="M16.738,58.584a1.542,1.542,0,0,0-2.331,0c-.545.54-1.09,1.081-1.626,1.63a.321.321,0,0,1-.449.082c-.353-.192-.728-.348-1.067-.559a16.907,16.907,0,0,1-4.076-3.71,9.657,9.657,0,0,1-1.461-2.34.335.335,0,0,1,.082-.431c.545-.527,1.076-1.067,1.612-1.608a1.548,1.548,0,0,0,0-2.386c-.426-.431-.852-.852-1.278-1.282s-.875-.884-1.319-1.319a1.552,1.552,0,0,0-2.331,0c-.55.54-1.076,1.095-1.635,1.626a2.654,2.654,0,0,0-.834,1.791,7.587,7.587,0,0,0,.586,3.265A19.842,19.842,0,0,0,4.13,59.216a21.794,21.794,0,0,0,7.218,5.647,10.439,10.439,0,0,0,4,1.163,2.93,2.93,0,0,0,2.514-.957c.467-.522.994-1,1.488-1.5a1.558,1.558,0,0,0,.009-2.372Q18.052,59.887,16.738,58.584Z" transform="translate(1.994 -42.024)"/>
      <path id="Path_464" data-name="Path 464" class="cls-2" d="M242.819,102.512l1.69-.289A7.586,7.586,0,0,0,238.092,96l-.238,1.7a5.863,5.863,0,0,1,4.965,4.813Z" transform="translate(-224.961 -90.603)"/>
      <path id="Path_465" data-name="Path 465" class="cls-2" d="M250.137,3.563A12.461,12.461,0,0,0,242.992,0l-.238,1.7a10.873,10.873,0,0,1,9.2,8.917l1.69-.289A12.552,12.552,0,0,0,250.137,3.563Z" transform="translate(-229.637 1)"/>
    </g>
  </g>
</svg>
