<svg xmlns="http://www.w3.org/2000/svg" viewBox="10679.343 6296 36 36">
  <defs>
    <style>
      .cls-1 {
        fill: #f58a3e;
      }
    </style>
  </defs>
  <path id="Subtraction_24" data-name="Subtraction 24" class="cls-1" d="M-9861-5482h-26a5.005,5.005,0,0,1-5-5v-26a5.006,5.006,0,0,1,5-5h26a5.006,5.006,0,0,1,5,5v26A5.005,5.005,0,0,1-9861-5482Zm-15.321-11.419h0l2.671,1.822a.5.5,0,0,0,.29.089.531.531,0,0,0,.447-.248l9.7-15.993a.159.159,0,0,0,0-.165.163.163,0,0,0-.142-.086l-21.5,7.761a.519.519,0,0,0-.34.425.5.5,0,0,0,.221.489l3.207,2.187,14.551-7.671-12.318,9.2v3.727a.321.321,0,0,0,.322.319.319.319,0,0,0,.177-.054Z" transform="translate(20571.344 11814)"/>
</svg>
