<svg xmlns="http://www.w3.org/2000/svg" viewBox="15047.847 12591 18.236 19.64">
  <defs>
    <style>
      .cls-1 {
        opacity: 0.282;
      }
    </style>
  </defs>
  <g id="calendar-with-spring-binder-and-date-blocks" class="cls-1" transform="translate(15029.57 12591)">
    <path id="Path_263" data-name="Path 263" d="M36.1,3.222a1.348,1.348,0,0,0-.986-.416h-1.4V1.754A1.689,1.689,0,0,0,33.192.515,1.689,1.689,0,0,0,31.954,0h-.7a1.688,1.688,0,0,0-1.238.515A1.688,1.688,0,0,0,29.5,1.754V2.806H25.29V1.754A1.689,1.689,0,0,0,24.775.515,1.688,1.688,0,0,0,23.537,0h-.7A1.689,1.689,0,0,0,21.6.515a1.689,1.689,0,0,0-.515,1.238V2.806h-1.4a1.348,1.348,0,0,0-.986.416,1.348,1.348,0,0,0-.416.986V18.237a1.422,1.422,0,0,0,1.4,1.4H35.11a1.423,1.423,0,0,0,1.4-1.4V4.209A1.349,1.349,0,0,0,36.1,3.222ZM22.835,18.237H19.679V15.08h3.156Zm0-3.858H19.679V10.872h3.156Zm0-4.209H19.679V7.014h3.156Zm-.246-5.014a.337.337,0,0,1-.1-.247V1.754a.356.356,0,0,1,.351-.351h.7a.356.356,0,0,1,.351.351V4.91a.356.356,0,0,1-.351.351h-.7A.337.337,0,0,1,22.589,5.157Zm4.455,13.08H23.537V15.08h3.507Zm0-3.858H23.537V10.872h3.507Zm0-4.209H23.537V7.014h3.507Zm4.209,8.066H27.745V15.08h3.507Zm0-3.858H27.745V10.872h3.507Zm0-4.209H27.745V7.014h3.507Zm-.247-5.014a.337.337,0,0,1-.1-.247V1.754a.355.355,0,0,1,.351-.351h.7a.355.355,0,0,1,.351.351V4.91a.355.355,0,0,1-.351.351h-.7A.336.336,0,0,1,31.006,5.157Zm4.1,13.08H31.953V15.08H35.11Zm0-3.858H31.953V10.872H35.11Zm0-4.209H31.953V7.014H35.11Z"/>
  </g>
</svg>
