<svg xmlns="http://www.w3.org/2000/svg" viewBox="13877.782 5307 15 15">
  <defs>
    <style>
      .cls-1 {
        fill: #a2a2a2;
      }
    </style>
  </defs>
  <g id="download-symbol" transform="translate(13902.782 5307)">
    <g id="Group_46" data-name="Group 46" transform="translate(0 0)">
      <path id="Path_33" data-name="Path 33" class="cls-1" d="M13.994,3.735a7.469,7.469,0,0,0-2.729-2.729A7.336,7.336,0,0,0,7.5,0,7.336,7.336,0,0,0,3.736,1.006a7.467,7.467,0,0,0-2.73,2.729A7.336,7.336,0,0,0,0,7.5a7.338,7.338,0,0,0,1.006,3.765,7.469,7.469,0,0,0,2.73,2.729A7.337,7.337,0,0,0,7.5,15a7.337,7.337,0,0,0,3.765-1.006,7.467,7.467,0,0,0,2.729-2.729A7.338,7.338,0,0,0,15,7.5,7.338,7.338,0,0,0,13.994,3.735ZM12.1,10.166A5.3,5.3,0,0,1,10.166,12.1a5.193,5.193,0,0,1-2.666.713A5.193,5.193,0,0,1,4.834,12.1,5.3,5.3,0,0,1,2.9,10.166,5.192,5.192,0,0,1,2.188,7.5,5.193,5.193,0,0,1,2.9,4.834,5.3,5.3,0,0,1,4.834,2.9,5.192,5.192,0,0,1,7.5,2.188a5.192,5.192,0,0,1,2.666.713A5.3,5.3,0,0,1,12.1,4.834,5.192,5.192,0,0,1,12.813,7.5,5.192,5.192,0,0,1,12.1,10.166Z" transform="translate(-25 0)"/>
      <path id="Path_34" data-name="Path 34" class="cls-1" d="M125.121,113.378h-1.875V109.94a.3.3,0,0,0-.312-.312h-1.875a.3.3,0,0,0-.313.312v3.438h-1.875a.29.29,0,0,0-.293.2.3.3,0,0,0,.068.342l3.125,3.125a.331.331,0,0,0,.449,0l3.115-3.115a.367.367,0,0,0,.1-.234.3.3,0,0,0-.313-.313Z" transform="translate(-139.496 -105.878)"/>
    </g>
  </g>
</svg>
