<svg xmlns="http://www.w3.org/2000/svg" viewBox="13833.808 15070 17.329 18.164">
  <defs>
    <style>
      .cls-1 {
        fill: #577590;
      }
    </style>
  </defs>
  <path id="attachment" class="cls-1" d="M18.411,6.758a.351.351,0,0,0-.5,0l-9.6,9.6a3.764,3.764,0,0,1-5.323-5.323l9.6-9.6a2.581,2.581,0,0,1,3.722.145A2.58,2.58,0,0,1,16.458,5.3L7.436,14.325a1.295,1.295,0,1,1-1.831-1.831l6.112-6.112a.352.352,0,1,0-.5-.5L5.108,12a2,2,0,0,0,2.826,2.826L16.956,5.8a3.268,3.268,0,0,0-.146-4.718A3.268,3.268,0,0,0,12.093.937l-9.6,9.6A4.468,4.468,0,0,0,8.807,16.86l9.6-9.6A.351.351,0,0,0,18.411,6.758Z" transform="translate(13832.623 15070.001)"/>
</svg>
