<svg xmlns="http://www.w3.org/2000/svg" viewBox="10678.999 6602 36 36">
  <defs>
    <style>
      .cls-1 {
        fill: #59cd90;
      }
    </style>
  </defs>
  <path id="Subtraction_27" data-name="Subtraction 27" class="cls-1" d="M-9861-5482h-26a5.005,5.005,0,0,1-5-5v-26a5.006,5.006,0,0,1,5-5h26a5.006,5.006,0,0,1,5,5v26A5.005,5.005,0,0,1-9861-5482Zm-12.933-12.167h0l5.436,3.287a.7.7,0,0,0,.36.1.758.758,0,0,0,.407-.126.689.689,0,0,0,.268-.723l-1.442-6.179,4.8-4.146a.7.7,0,0,0,.209-.755.688.688,0,0,0-.6-.477l-6.333-.534-2.463-5.856a.7.7,0,0,0-.638-.429.677.677,0,0,0-.638.429l-2.463,5.856-6.331.534a.682.682,0,0,0-.605.477.717.717,0,0,0,.211.742l4.8,4.148-1.439,6.179a.705.705,0,0,0,.266.72.693.693,0,0,0,.409.131.7.7,0,0,0,.358-.1Z" transform="translate(20571 12120)"/>
</svg>
