<svg xmlns="http://www.w3.org/2000/svg" viewBox="16007 5082 30 26.994">
  <defs>
    <style>
      .cls-1 {
        fill: #fff;
      }
    </style>
  </defs>
  <g id="carriers" transform="translate(16007 5056.346)">
    <g id="Group_151" data-name="Group 151" transform="translate(0 25.654)">
      <path id="Path_109" data-name="Path 109" class="cls-1" d="M27.526,29.662H20.659l-.534-2.134a2.471,2.471,0,0,0-2.4-1.874h-5.45a2.471,2.471,0,0,0-2.4,1.874l-.533,2.134H2.474A2.477,2.477,0,0,0,0,32.136V50.174a2.477,2.477,0,0,0,2.474,2.474H27.526A2.477,2.477,0,0,0,30,50.174V32.136A2.477,2.477,0,0,0,27.526,29.662Zm-16.74-1.906a1.533,1.533,0,0,1,1.489-1.163h5.45a1.533,1.533,0,0,1,1.489,1.163l.477,1.906h-1.1l-.412-1.648a.47.47,0,0,0-.456-.356h-5.45a.47.47,0,0,0-.456.356l-.412,1.648h-1.1Zm6.838,1.906H12.376l.266-1.065h4.716ZM2.474,30.6H27.526a1.531,1.531,0,0,1,1.171.544L25.647,40.3a2.033,2.033,0,0,1-1.931,1.392H16.973V40.654A.972.972,0,0,0,16,39.683H14a.972.972,0,0,0-.971.971v1.033H6.284A2.033,2.033,0,0,1,4.353,40.3L1.3,31.146A1.531,1.531,0,0,1,2.474,30.6ZM13.967,42.69V40.654A.031.031,0,0,1,14,40.623h2a.031.031,0,0,1,.031.031V42.69Zm2.067.939v1.033a.031.031,0,0,1-.031.031H14a.031.031,0,0,1-.031-.031V43.629Zm13.027,6.545a1.536,1.536,0,0,1-1.534,1.534H2.474A1.536,1.536,0,0,1,.939,50.174V33.027l2.522,7.566a2.971,2.971,0,0,0,2.822,2.034h6.743v2.035a.972.972,0,0,0,.971.971h2a.972.972,0,0,0,.971-.971V42.627h6.743a2.971,2.971,0,0,0,2.822-2.034l2.522-7.566V50.174Z" transform="translate(0 -25.654)"/>
    </g>
  </g>
</svg>
