<svg xmlns="http://www.w3.org/2000/svg" viewBox="16009 4798 25.438 25">
  <defs>
    <style>
      .cls-1 {
        fill: #fff;
      }
    </style>
  </defs>
  <g id="activities_icon" data-name="activities icon" transform="translate(16009 4797.5)">
    <path id="Path_116" data-name="Path 116" class="cls-1" d="M18.815,2.254A2.2,2.2,0,0,0,16.667.5a.439.439,0,1,0,0,.877,1.316,1.316,0,1,1,0,2.632.439.439,0,1,0,0,.877,2.2,2.2,0,0,0,2.149-1.754h5.746V7.079H.877V3.132H8.333a.439.439,0,0,0,0-.877h-.8A1.314,1.314,0,1,1,8.772,4.009a.439.439,0,0,0,0,.877A2.193,2.193,0,1,0,6.623,2.254H0V25.5H25.439V2.254Zm5.746,22.368H.877V7.956H24.561Z"/>
    <path id="Path_117" data-name="Path 117" class="cls-1" d="M25.439,1.377a1.316,1.316,0,0,1,0,2.632.439.439,0,1,0,0,.877,2.193,2.193,0,0,0,0-4.386.439.439,0,1,0,0,.877Z" transform="translate(-14.035)"/>
    <path id="Path_118" data-name="Path 118" class="cls-1" d="M31.439,1.377a1.316,1.316,0,0,1,0,2.632.439.439,0,1,0,0,.877,2.193,2.193,0,0,0,0-4.386.439.439,0,1,0,0,.877Z" transform="translate(-17.404)"/>
    <ellipse id="Ellipse_14" data-name="Ellipse 14" class="cls-1" cx="0.439" cy="0.439" rx="0.439" ry="0.439" transform="translate(9.211 10.588)"/>
    <ellipse id="Ellipse_15" data-name="Ellipse 15" class="cls-1" cx="0.439" cy="0.439" rx="0.439" ry="0.439" transform="translate(12.281 10.588)"/>
    <ellipse id="Ellipse_16" data-name="Ellipse 16" class="cls-1" cx="0.439" cy="0.439" rx="0.439" ry="0.439" transform="translate(15.351 10.588)"/>
    <ellipse id="Ellipse_17" data-name="Ellipse 17" class="cls-1" cx="0.439" cy="0.439" rx="0.439" ry="0.439" transform="translate(18.421 10.588)"/>
    <ellipse id="Ellipse_18" data-name="Ellipse 18" class="cls-1" cx="0.439" cy="0.439" rx="0.439" ry="0.439" transform="translate(21.491 10.588)"/>
    <ellipse id="Ellipse_19" data-name="Ellipse 19" class="cls-1" cx="0.439" cy="0.439" rx="0.439" ry="0.439" transform="translate(3.07 14.096)"/>
    <ellipse id="Ellipse_20" data-name="Ellipse 20" class="cls-1" cx="0.439" cy="0.439" rx="0.439" ry="0.439" transform="translate(6.14 14.096)"/>
    <ellipse id="Ellipse_21" data-name="Ellipse 21" class="cls-1" cx="0.439" cy="0.439" rx="0.439" ry="0.439" transform="translate(9.211 14.096)"/>
    <ellipse id="Ellipse_22" data-name="Ellipse 22" class="cls-1" cx="0.439" cy="0.439" rx="0.439" ry="0.439" transform="translate(12.281 14.096)"/>
    <ellipse id="Ellipse_23" data-name="Ellipse 23" class="cls-1" cx="0.439" cy="0.439" rx="0.439" ry="0.439" transform="translate(15.351 14.096)"/>
    <ellipse id="Ellipse_24" data-name="Ellipse 24" class="cls-1" cx="0.439" cy="0.439" rx="0.439" ry="0.439" transform="translate(18.421 14.096)"/>
    <ellipse id="Ellipse_25" data-name="Ellipse 25" class="cls-1" cx="0.439" cy="0.439" rx="0.439" ry="0.439" transform="translate(21.491 14.096)"/>
    <ellipse id="Ellipse_26" data-name="Ellipse 26" class="cls-1" cx="0.439" cy="0.439" rx="0.439" ry="0.439" transform="translate(3.07 17.167)"/>
    <ellipse id="Ellipse_27" data-name="Ellipse 27" class="cls-1" cx="0.439" cy="0.439" rx="0.439" ry="0.439" transform="translate(6.14 17.167)"/>
    <ellipse id="Ellipse_28" data-name="Ellipse 28" class="cls-1" cx="0.439" cy="0.439" rx="0.439" ry="0.439" transform="translate(9.211 17.167)"/>
    <ellipse id="Ellipse_29" data-name="Ellipse 29" class="cls-1" cx="0.439" cy="0.439" rx="0.439" ry="0.439" transform="translate(12.281 17.167)"/>
    <ellipse id="Ellipse_30" data-name="Ellipse 30" class="cls-1" cx="0.439" cy="0.439" rx="0.439" ry="0.439" transform="translate(15.351 17.167)"/>
    <ellipse id="Ellipse_31" data-name="Ellipse 31" class="cls-1" cx="0.439" cy="0.439" rx="0.439" ry="0.439" transform="translate(18.421 17.167)"/>
    <ellipse id="Ellipse_32" data-name="Ellipse 32" class="cls-1" cx="0.439" cy="0.439" rx="0.439" ry="0.439" transform="translate(21.491 17.167)"/>
    <ellipse id="Ellipse_33" data-name="Ellipse 33" class="cls-1" cx="0.439" cy="0.439" rx="0.439" ry="0.439" transform="translate(3.07 20.675)"/>
    <ellipse id="Ellipse_34" data-name="Ellipse 34" class="cls-1" cx="0.439" cy="0.439" rx="0.439" ry="0.439" transform="translate(6.14 20.675)"/>
    <ellipse id="Ellipse_35" data-name="Ellipse 35" class="cls-1" cx="0.439" cy="0.439" rx="0.439" ry="0.439" transform="translate(9.211 20.675)"/>
    <ellipse id="Ellipse_36" data-name="Ellipse 36" class="cls-1" cx="0.439" cy="0.439" rx="0.439" ry="0.439" transform="translate(12.281 20.675)"/>
    <ellipse id="Ellipse_37" data-name="Ellipse 37" class="cls-1" cx="0.439" cy="0.439" rx="0.439" ry="0.439" transform="translate(15.351 20.675)"/>
  </g>
</svg>
