<svg xmlns="http://www.w3.org/2000/svg" viewBox="16010 4867 23.438 30">
  <defs>
    <style>
      .cls-1 {
        opacity: 0.3;
      }

      .cls-2 {
        fill: #fff;
      }
    </style>
  </defs>
  <g id="rfp_icon_" data-name="rfp icon " class="cls-1" transform="translate(15954 4867)">
    <path id="Path_100" data-name="Path 100" class="cls-2" d="M77.094,1.875H72.405A2.342,2.342,0,0,0,70.531.938H69.337a1.865,1.865,0,0,0-3.236,0H64.906a2.342,2.342,0,0,0-1.874.938H58.344A2.346,2.346,0,0,0,56,4.219V27.656A2.346,2.346,0,0,0,58.344,30h18.75a2.346,2.346,0,0,0,2.344-2.344V4.219A2.346,2.346,0,0,0,77.094,1.875ZM63.5,3.281a1.408,1.408,0,0,1,1.406-1.406H66.4a.469.469,0,0,0,.442-.312.929.929,0,0,1,1.757,0,.469.469,0,0,0,.442.312h1.492a1.408,1.408,0,0,1,1.406,1.406V4.688H63.5Zm15,24.375a1.408,1.408,0,0,1-1.406,1.406H58.344a1.408,1.408,0,0,1-1.406-1.406V4.219a1.408,1.408,0,0,1,1.406-1.406H62.61a2.345,2.345,0,0,0-.047.469V5.156a.469.469,0,0,0,.469.469h9.375a.469.469,0,0,0,.469-.469V3.281a2.346,2.346,0,0,0-.047-.469h4.266A1.408,1.408,0,0,1,78.5,4.219Z"/>
    <path id="Path_101" data-name="Path 101" class="cls-2" d="M107.219,64h-2.812a.469.469,0,0,0,0,.938h2.344v22.5H88.938v-22.5h2.344a.469.469,0,0,0,0-.937H88.469a.469.469,0,0,0-.469.469V87.906a.469.469,0,0,0,.469.469h18.75a.469.469,0,0,0,.469-.469V64.469A.469.469,0,0,0,107.219,64Z" transform="translate(-30.125 -60.25)"/>
    <path id="Path_102" data-name="Path 102" class="cls-2" d="M248.469,32a.468.468,0,1,0,.332.137A.472.472,0,0,0,248.469,32Z" transform="translate(-180.75 -30.125)"/>
    <path id="Path_103" data-name="Path 103" class="cls-2" d="M128.137,169.075a.469.469,0,0,0,0,.663l1.406,1.406a.469.469,0,0,0,.663,0l2.344-2.344a.469.469,0,0,0-.663-.663l-2.012,2.012-1.075-1.075A.469.469,0,0,0,128.137,169.075Z" transform="translate(-67.781 -158.156)"/>
    <path id="Path_104" data-name="Path 104" class="cls-2" d="M132.55,256.137a.469.469,0,0,0-.663,0l-2.012,2.012-1.075-1.075a.469.469,0,0,0-.663.663l1.406,1.406a.469.469,0,0,0,.663,0l2.344-2.344A.469.469,0,0,0,132.55,256.137Z" transform="translate(-67.781 -241)"/>
    <path id="Path_105" data-name="Path 105" class="cls-2" d="M131.888,344.137l-2.012,2.012-1.075-1.075a.469.469,0,0,0-.663.663l1.406,1.406a.469.469,0,0,0,.663,0l2.344-2.344a.469.469,0,1,0-.663-.663Z" transform="translate(-67.781 -323.844)"/>
    <path id="Path_106" data-name="Path 106" class="cls-2" d="M232.469,184.938h7.969a.469.469,0,0,0,0-.937h-7.969a.469.469,0,0,0,0,.938Z" transform="translate(-165.688 -173.219)"/>
    <path id="Path_107" data-name="Path 107" class="cls-2" d="M232.469,272.938h7.969a.469.469,0,0,0,0-.937h-7.969a.469.469,0,0,0,0,.938Z" transform="translate(-165.688 -256.063)"/>
    <path id="Path_108" data-name="Path 108" class="cls-2" d="M232.469,360.938h7.969a.469.469,0,0,0,0-.937h-7.969a.469.469,0,0,0,0,.938Z" transform="translate(-165.688 -338.906)"/>
  </g>
</svg>
