<svg xmlns="http://www.w3.org/2000/svg" viewBox="16010 4939 24 30">
  <defs>
    <style>
      .cls-1 {
        opacity: 0.3;
      }

      .cls-2 {
        fill: #fff;
      }
    </style>
  </defs>
  <g id="proposal_icon" data-name="proposal icon" class="cls-1" transform="translate(16004 4939)">
    <path id="Path_110" data-name="Path 110" class="cls-2" d="M32,25H19.5a.5.5,0,0,0,0,1H32a.5.5,0,0,0,0-1Z" transform="translate(-6.5 -12.5)"/>
    <path id="Path_111" data-name="Path 111" class="cls-2" d="M19.5,18h5a.5.5,0,0,0,0-1h-5a.5.5,0,0,0,0,1Z" transform="translate(-6.5 -8.5)"/>
    <path id="Path_112" data-name="Path 112" class="cls-2" d="M32,33H19.5a.5.5,0,0,0,0,1H32a.5.5,0,0,0,0-1Z" transform="translate(-6.5 -16.5)"/>
    <path id="Path_113" data-name="Path 113" class="cls-2" d="M32,41H19.5a.5.5,0,0,0,0,1H32a.5.5,0,0,0,0-1Z" transform="translate(-6.5 -20.5)"/>
    <path id="Path_114" data-name="Path 114" class="cls-2" d="M32,49H19.5a.5.5,0,0,0,0,1H32a.5.5,0,0,0,0-1Z" transform="translate(-6.5 -24.5)"/>
    <path id="Path_115" data-name="Path 115" class="cls-2" d="M27.5,7.293V0H6V27.5H8.5V30H30V9.793ZM23,4.207l4.5,4.5.793.793H23ZM7,26.5V1H26.5V6.293L22.707,2.5H8.5v24ZM9.5,29V3.5H22v7h7V29Z"/>
  </g>
</svg>
