<svg xmlns="http://www.w3.org/2000/svg" viewBox="16007 5156 30 24.5">
  <defs>
    <style>
      .cls-1 {
        fill: #fff;
      }
    </style>
  </defs>
  <path id="_006-folder" data-name="006-folder" class="cls-1" d="M28.745,13.5H27V10.366A1.368,1.368,0,0,0,25.634,9H13.257l-2.5-3.5H1.366A1.368,1.368,0,0,0,0,6.866V28.709H0A1.277,1.277,0,0,0,1.282,30H23.662a1.269,1.269,0,0,0,1.225-.906L30,15.074v-.088A1.339,1.339,0,0,0,28.745,13.5ZM1,6.866A.366.366,0,0,1,1.366,6.5h8.877l2.5,3.5H25.633a.366.366,0,0,1,.366.366V13.5H6.365a1.282,1.282,0,0,0-1.224.906L1,25.7ZM23.934,28.792a.283.283,0,0,1-.272.208H1.282a.276.276,0,0,1-.224-.111.271.271,0,0,1-.062-.2l5.1-13.977a.283.283,0,0,1,.273-.208h22.38c.19,0,.239.273.251.41Z" transform="translate(16007 5150.5)"/>
</svg>
