<svg xmlns="http://www.w3.org/2000/svg" viewBox="16007 4390 30 24.5">
  <defs>
    <style>
      .cls-1 {
        fill: #fff;
      }
    </style>
  </defs>
  <g id="dashboard" transform="translate(16008 4344.066)">
    <g id="Group_153" data-name="Group 153" transform="translate(-1 45.933)">
      <g id="Group_152" data-name="Group 152" transform="translate(0 0)">
        <path id="Path_119" data-name="Path 119" class="cls-1" d="M219.426,207.864l-2.4,1.45c-.85.5-1.75.95-2.6,1.35-.25.1-.55.25-.85.4a2.584,2.584,0,0,0-1.35,2.85,2.49,2.49,0,0,0,1.85,1.85,2.436,2.436,0,0,0,.6.05,2.559,2.559,0,0,0,2.25-1.4c.1-.25.25-.55.4-.85.45-.85.85-1.75,1.35-2.6l1.45-2.4a.545.545,0,0,0-.1-.6A.462.462,0,0,0,219.426,207.864Zm-1.6,2.55a23.159,23.159,0,0,0-1.4,2.7,6.509,6.509,0,0,1-.4.85,1.483,1.483,0,0,1-1.7.8,1.387,1.387,0,0,1-1.1-1.1,1.483,1.483,0,0,1,.8-1.7c.25-.15.55-.25.85-.4.9-.45,1.85-.9,2.7-1.4l.65-.4Z" transform="translate(-199.676 -198.314)"/>
        <path id="Path_120" data-name="Path 120" class="cls-1" d="M27.929,55.383a.535.535,0,0,0-.029-.1.438.438,0,0,0-.049-.09,15.1,15.1,0,0,0-3.184-4.779.544.544,0,0,0-.147-.147A14.928,14.928,0,0,0,8.45,47a.533.533,0,0,0-.1.029.439.439,0,0,0-.09.049,15.1,15.1,0,0,0-4.779,3.184.543.543,0,0,0-.147.147A14.951,14.951,0,0,0-1,60.933a14.634,14.634,0,0,0,3.25,9.3.455.455,0,0,0,.4.2h22.7a.455.455,0,0,0,.4-.2,14.634,14.634,0,0,0,3.25-9.3A14.862,14.862,0,0,0,27.929,55.383ZM25.15,69.433H2.9a13.851,13.851,0,0,1-1.681-2.79l1.381-.56a.492.492,0,0,0-.4-.9l-1.354.549a13.844,13.844,0,0,1-.837-4.3H3.5a.5.5,0,0,0,0-1H.01a13.859,13.859,0,0,1,.917-4.494l1.373.594a.3.3,0,0,0,.2.05.481.481,0,0,0,.45-.3.5.5,0,0,0-.25-.65l-1.387-.6A14.1,14.1,0,0,1,3.769,51.4L4.8,52.433a.483.483,0,0,0,.7,0,.483.483,0,0,0,0-.7L4.469,50.7a14.093,14.093,0,0,1,3.823-2.545l.558,1.376a.437.437,0,0,0,.45.3.378.378,0,0,0,.2-.05.5.5,0,0,0,.25-.65L9.2,47.785a13.862,13.862,0,0,1,4.3-.842v3.49a.5.5,0,0,0,1,0v-3.49a13.859,13.859,0,0,1,4.494.917L18.4,49.233a.5.5,0,0,0,.25.65.3.3,0,0,0,.2.05.506.506,0,0,0,.45-.3l.6-1.387A14.1,14.1,0,0,1,23.531,50.7L22.5,51.733a.483.483,0,0,0,0,.7.454.454,0,0,0,.35.15.54.54,0,0,0,.35-.15L24.231,51.4a14.093,14.093,0,0,1,2.545,3.823l-1.376.558a.5.5,0,0,0-.25.65.437.437,0,0,0,.45.3c.05,0,.1-.05.2-.05l1.348-.547a13.862,13.862,0,0,1,.842,4.3H24.5a.5.5,0,1,0,0,1h3.491a14.032,14.032,0,0,1-.9,4.5l-1.387-.6a.492.492,0,0,0-.4.9l1.405.608A14.186,14.186,0,0,1,25.15,69.433Z" transform="translate(1 -45.933)"/>
      </g>
    </g>
  </g>
</svg>
