<svg xmlns="http://www.w3.org/2000/svg" viewBox="14036 5013.549 30 25.148">
  <defs>
    <style>
      .cls-1, .cls-2 {
        fill: #fff;
      }

      .cls-2 {
        opacity: 0.3;
      }
    </style>
  </defs>
  <g id="Group_514" data-name="Group 514" transform="translate(13876 4005.549)">
    <path id="Path_351" data-name="Path 351" class="cls-1" d="M151.549,64.347a8.308,8.308,0,0,0,1.542,4.553,4.356,4.356,0,0,0,7.806,0,8.308,8.308,0,0,0,1.542-4.553,5.445,5.445,0,0,0-10.891,0Zm5.445-4.5a4.5,4.5,0,0,1,4.5,4.5,7.438,7.438,0,0,1-1.371,4.01,3.433,3.433,0,0,1-6.258,0,7.438,7.438,0,0,1-1.371-4.01A4.5,4.5,0,0,1,156.994,59.848Z" transform="translate(18.005 950.385)"/>
    <path id="Path_352" data-name="Path 352" class="cls-1" d="M101.348,238.485a.473.473,0,0,0-.537.092,4.662,4.662,0,0,1-7.052,0,.473.473,0,0,0-.537-.092,9.463,9.463,0,0,0-5.4,8.548v.008a.473.473,0,0,0,.155.35,13.86,13.86,0,0,0,18.615,0,.473.473,0,0,0,.155-.35v-.008a9.462,9.462,0,0,0-5.4-8.548Zm-4.063,11.55a12.882,12.882,0,0,1-8.515-3.2,8.516,8.516,0,0,1,4.569-7.347,5.541,5.541,0,0,0,7.892,0,8.516,8.516,0,0,1,4.568,7.347A12.883,12.883,0,0,1,97.285,250.035Z" transform="translate(77.715 782.168)"/>
    <path id="Path_353" data-name="Path 353" class="cls-1" d="M316.624,198.8a8.262,8.262,0,0,0-3.4-2.988.473.473,0,0,0-.537.092,4.268,4.268,0,0,1-3,1.375,3.763,3.763,0,0,1-1.694-.413.473.473,0,1,0-.423.846,4.7,4.7,0,0,0,2.117.513,5.084,5.084,0,0,0,3.423-1.415,7.3,7.3,0,0,1,3.876,6.248,11.163,11.163,0,0,1-4.029,2.247.473.473,0,1,0,.278.9,12.111,12.111,0,0,0,4.544-2.59.473.473,0,0,0,.155-.35v-.007A8.219,8.219,0,0,0,316.624,198.8Z" transform="translate(-127.934 822.153)"/>
    <path id="Path_354" data-name="Path 354" class="cls-1" d="M59.729,49.323a3.314,3.314,0,0,0,1.483-.362.473.473,0,0,0-.421-.847,2.378,2.378,0,0,1-1.062.264,3.473,3.473,0,0,1-2.646-1.715,6.348,6.348,0,0,1-1.17-3.421,3.815,3.815,0,0,1,6.464-2.747.473.473,0,0,0,.657-.681,4.761,4.761,0,0,0-8.066,3.427,7.234,7.234,0,0,0,1.342,3.964A4.325,4.325,0,0,0,59.729,49.323Z" transform="translate(108.498 969.52)"/>
    <path id="Path_355" data-name="Path 355" class="cls-1" d="M3.848,204.864a11.054,11.054,0,0,1-2.9-1.829,7.28,7.28,0,0,1,3.865-6.229,5.07,5.07,0,0,0,3.413,1.411,4.692,4.692,0,0,0,2.133-.522.473.473,0,1,0-.427-.844,3.756,3.756,0,0,1-1.706.42A4.253,4.253,0,0,1,5.232,195.9a.473.473,0,0,0-.537-.092A8.226,8.226,0,0,0,0,203.239v.007a.473.473,0,0,0,.155.35,12,12,0,0,0,3.318,2.137.473.473,0,1,0,.374-.868Z" transform="translate(160 822.154)"/>
    <path id="Path_356" data-name="Path 356" class="cls-1" d="M69.317,346.754a.472.472,0,1,0,.873,0A.476.476,0,0,0,69.317,346.754Z" transform="translate(95.087 680.949)"/>
    <path id="Path_357" data-name="Path 357" class="cls-2" d="M83.65,350.88c.012.028-.011-.029,0,0Z" transform="translate(81.626 676.824)"/>
    <path id="Path_358" data-name="Path 358" class="cls-1" d="M291.439,40.5a3.816,3.816,0,0,1,6.464,2.747,6.348,6.348,0,0,1-1.17,3.421,3.473,3.473,0,0,1-2.646,1.715,2.378,2.378,0,0,1-1.062-.264.473.473,0,1,0-.421.847,3.314,3.314,0,0,0,1.483.362,4.324,4.324,0,0,0,3.42-2.117,7.234,7.234,0,0,0,1.342-3.964,4.761,4.761,0,0,0-8.066-3.427.473.473,0,1,0,.657.681Z" transform="translate(-112.314 969.519)"/>
  </g>
</svg>
