<svg xmlns="http://www.w3.org/2000/svg" viewBox="17608 4220 30 30">
  <defs>
    <style>
      .cls-1 {
        fill: #fff;
      }
    </style>
  </defs>
  <g id="settings" transform="translate(17608 4219.999)">
    <g id="Group_153" data-name="Group 153" transform="translate(0 0.001)">
      <path id="Path_113" data-name="Path 113" class="cls-1" d="M28.465,11.852l-2.106-.357a11.89,11.89,0,0,0-.846-2.043l1.241-1.736a1.848,1.848,0,0,0-.2-2.388L24.686,3.46a1.84,1.84,0,0,0-1.31-.545A1.821,1.821,0,0,0,22.3,3.26L20.562,4.5a11.766,11.766,0,0,0-2.118-.871l-.351-2.081A1.851,1.851,0,0,0,16.263,0H13.624a1.851,1.851,0,0,0-1.83,1.548L11.431,3.68a11.6,11.6,0,0,0-2.037.859L7.671,3.3a1.851,1.851,0,0,0-2.388.2L3.409,5.366a1.855,1.855,0,0,0-.2,2.388L4.462,9.514a11.614,11.614,0,0,0-.834,2.049l-2.081.351A1.851,1.851,0,0,0,0,13.744v2.638a1.851,1.851,0,0,0,1.548,1.83l2.131.363a11.6,11.6,0,0,0,.859,2.037L3.3,22.33a1.848,1.848,0,0,0,.2,2.388l1.868,1.868a1.84,1.84,0,0,0,1.31.545,1.821,1.821,0,0,0,1.072-.345l1.761-1.253a11.856,11.856,0,0,0,1.98.815l.351,2.106A1.851,1.851,0,0,0,13.675,30h2.645a1.851,1.851,0,0,0,1.83-1.548l.357-2.106a11.89,11.89,0,0,0,2.043-.846l1.736,1.241a1.84,1.84,0,0,0,1.078.345h0a1.84,1.84,0,0,0,1.31-.545l1.868-1.868a1.855,1.855,0,0,0,.2-2.388L25.5,20.544a11.8,11.8,0,0,0,.846-2.043l2.106-.351A1.851,1.851,0,0,0,30,16.32V13.682A1.829,1.829,0,0,0,28.465,11.852ZM28.32,16.32a.162.162,0,0,1-.138.163l-2.632.439a.841.841,0,0,0-.677.62,10.032,10.032,0,0,1-1.09,2.626.847.847,0,0,0,.038.921l1.548,2.181a.171.171,0,0,1-.019.213l-1.868,1.868a.159.159,0,0,1-.119.05.154.154,0,0,1-.094-.031l-2.175-1.548a.847.847,0,0,0-.921-.038,10.032,10.032,0,0,1-2.626,1.09.832.832,0,0,0-.62.677l-.445,2.632a.162.162,0,0,1-.163.138H13.681a.162.162,0,0,1-.163-.138l-.439-2.632a.841.841,0,0,0-.62-.677,10.417,10.417,0,0,1-2.569-1.053.867.867,0,0,0-.426-.113.825.825,0,0,0-.489.157l-2.193,1.56a.187.187,0,0,1-.094.031.168.168,0,0,1-.119-.05L4.7,23.54a.17.17,0,0,1-.019-.213l1.542-2.162a.858.858,0,0,0,.038-.928,9.938,9.938,0,0,1-1.1-2.62A.858.858,0,0,0,4.481,17L1.83,16.546a.162.162,0,0,1-.138-.163V13.744a.162.162,0,0,1,.138-.163l2.613-.439a.847.847,0,0,0,.683-.627A10.022,10.022,0,0,1,6.2,9.884a.837.837,0,0,0-.044-.915L4.594,6.776a.171.171,0,0,1,.019-.213L6.48,4.695a.159.159,0,0,1,.119-.05.154.154,0,0,1,.094.031L8.855,6.218a.858.858,0,0,0,.928.038,9.938,9.938,0,0,1,2.62-1.1.858.858,0,0,0,.62-.677l.451-2.651a.162.162,0,0,1,.163-.138h2.638a.162.162,0,0,1,.163.138l.439,2.613a.847.847,0,0,0,.627.683,10.172,10.172,0,0,1,2.689,1.1.847.847,0,0,0,.921-.038l2.162-1.554A.186.186,0,0,1,23.37,4.6a.168.168,0,0,1,.119.05l1.868,1.868a.17.17,0,0,1,.019.213L23.827,8.906a.847.847,0,0,0-.038.921,10.032,10.032,0,0,1,1.09,2.626.832.832,0,0,0,.677.62l2.632.445a.162.162,0,0,1,.138.163V16.32Z" transform="translate(0 -0.001)"/>
      <path id="Path_114" data-name="Path 114" class="cls-1" d="M142.574,136a6.474,6.474,0,1,0,6.474,6.474A6.478,6.478,0,0,0,142.574,136Zm0,11.255a4.782,4.782,0,1,1,4.782-4.782A4.785,4.785,0,0,1,142.574,147.257Z" transform="translate(-127.571 -127.478)"/>
    </g>
  </g>
</svg>
