<svg xmlns="http://www.w3.org/2000/svg" viewBox="13817.559 5755.317 17.321 15.887">
  <defs>
    <style>
      .cls-1 {
        fill: #9097a6;
      }
    </style>
  </defs>
  <g id="_008-settings" data-name="008-settings" transform="translate(13817.559 5755.317)">
    <g id="Group_81" data-name="Group 81" transform="translate(0 0)">
      <path id="Path_55" data-name="Path 55" class="cls-1" d="M15.793,151.207a.409.409,0,0,0-.095-.248q-.758-.832-1.218-1.427a5.832,5.832,0,0,0,.433-.943l2.1-.3a.319.319,0,0,0,.217-.13.385.385,0,0,0,.094-.242v-2.3a.351.351,0,0,0-.094-.242.4.4,0,0,0-.23-.13l-2.057-.285a8.112,8.112,0,0,0-.46-1.018q.2-.273.609-.745t.568-.67a.394.394,0,0,0,.095-.236q0-.335-1.948-1.986a.474.474,0,0,0-.284-.1.419.419,0,0,0-.271.087l-1.6,1.1a6.268,6.268,0,0,0-1.015-.385l-.311-1.9a.314.314,0,0,0-.135-.217.436.436,0,0,0-.271-.093H7.4a.39.39,0,0,0-.406.3,13.174,13.174,0,0,0-.311,1.911,6.922,6.922,0,0,0-1.042.4L4.087,140.3a.517.517,0,0,0-.284-.087q-.257,0-1.069.732a10.92,10.92,0,0,0-1.11,1.1.345.345,0,0,0-.095.248.447.447,0,0,0,.095.248q.758.832,1.218,1.427a5.854,5.854,0,0,0-.433.943l-2.1.3a.318.318,0,0,0-.217.13.384.384,0,0,0-.095.242v2.3a.351.351,0,0,0,.095.242.341.341,0,0,0,.23.118l2.057.3a6.085,6.085,0,0,0,.474,1.018q-.217.273-.636.757t-.555.658a.4.4,0,0,0-.095.236q0,.336,1.949,1.986a.473.473,0,0,0,.284.1.385.385,0,0,0,.271-.087l1.6-1.1a6.24,6.24,0,0,0,1.015.385l.311,1.9a.315.315,0,0,0,.135.217.435.435,0,0,0,.271.093H9.919a.39.39,0,0,0,.406-.3,13.663,13.663,0,0,0,.311-1.924,6.455,6.455,0,0,0,1.042-.385l1.556,1.117a.517.517,0,0,0,.284.087q.257,0,1.062-.739a13.471,13.471,0,0,0,1.116-1.111A.3.3,0,0,0,15.793,151.207ZM11.11,149a3.5,3.5,0,0,1-2.449.931A3.5,3.5,0,0,1,6.211,149a2.994,2.994,0,0,1,0-4.493,3.5,3.5,0,0,1,2.449-.931,3.5,3.5,0,0,1,2.449.931,2.994,2.994,0,0,1,0,4.493Z" transform="translate(0 -138.808)"/>
    </g>
  </g>
</svg>
