<svg xmlns="http://www.w3.org/2000/svg" viewBox="17514 4220 39.422 30">
  <defs>
    <style>
      .cls-1 {
        fill: #fff;
      }
    </style>
  </defs>
  <g id="mail" transform="translate(17514 4162.25)">
    <g id="Group_152" data-name="Group 152" transform="translate(0 57.75)">
      <path id="Path_111" data-name="Path 111" class="cls-1" d="M34.608,57.75H4.821A4.825,4.825,0,0,0,0,62.571V82.929A4.825,4.825,0,0,0,4.821,87.75H34.6a4.825,4.825,0,0,0,4.821-4.821V62.579A4.82,4.82,0,0,0,34.608,57.75Zm2.618,25.179a2.621,2.621,0,0,1-2.618,2.618H4.821A2.621,2.621,0,0,1,2.2,82.929V62.579A2.621,2.621,0,0,1,4.821,59.96H34.6a2.621,2.621,0,0,1,2.618,2.618V82.929Z" transform="translate(0 -57.75)"/>
      <path id="Path_112" data-name="Path 112" class="cls-1" d="M76.066,119.477l9.641-8.646a1.1,1.1,0,1,0-1.476-1.639l-13.3,11.933-2.594-2.316c-.008-.008-.016-.016-.016-.024a1.63,1.63,0,0,0-.179-.155l-10.555-9.445a1.1,1.1,0,0,0-1.468,1.648l9.755,8.719-9.715,9.095a1.106,1.106,0,0,0-.049,1.558,1.127,1.127,0,0,0,.808.351,1.1,1.1,0,0,0,.75-.294l9.861-9.225,2.675,2.39a1.1,1.1,0,0,0,1.468-.008l2.749-2.463,9.8,9.315a1.1,1.1,0,0,0,1.558-.041,1.106,1.106,0,0,0-.041-1.558Z" transform="translate(-51.205 -104.73)"/>
    </g>
  </g>
</svg>
