<svg xmlns="http://www.w3.org/2000/svg" viewBox="13832.666 13675 18.526 25">
  <defs>
    <style>
      .cls-1 {
        fill: #577590;
      }
    </style>
  </defs>
  <g id="Group_906" data-name="Group 906" transform="translate(12037 13436)">
    <path id="Path_619" data-name="Path 619" class="cls-1" d="M57.923,1.9H52.777V1.387A1.38,1.38,0,0,0,51.407,0H48.681a1.38,1.38,0,0,0-1.37,1.387V1.9H42.166a1.38,1.38,0,0,0-1.385,1.373V4.18a1.375,1.375,0,0,0,.849,1.266c.158,3.145,1.071,18.349,1.113,19.032A.556.556,0,0,0,43.3,25H56.792a.555.555,0,0,0,.555-.522c.041-.683.955-15.887,1.113-19.032a1.375,1.375,0,0,0,.849-1.266V3.273A1.38,1.38,0,0,0,57.923,1.9Zm-9.5-.513a.268.268,0,0,1,.259-.276h2.726a.268.268,0,0,1,.259.276V1.9H48.422V1.387Zm-6.53,1.886a.268.268,0,0,1,.273-.262H57.923a.268.268,0,0,1,.273.262V4.18a.268.268,0,0,1-.273.262H42.165a.268.268,0,0,1-.273-.262V3.273ZM56.268,23.889H43.82c-.163-2.718-.911-15.212-1.072-18.336H57.34C57.179,8.677,56.431,21.171,56.268,23.889Z" transform="translate(1754.885 239)"/>
    <path id="Path_620" data-name="Path 620" class="cls-1" d="M151.056,95.125a.556.556,0,0,0-.556.556v13.977a.556.556,0,1,0,1.111,0V95.681A.556.556,0,0,0,151.056,95.125Z" transform="translate(1653.874 151.425)"/>
    <path id="Path_621" data-name="Path 621" class="cls-1" d="M97.321,95.931a.556.556,0,1,0-1.11.058l.729,13.955a.556.556,0,0,0,.554.527h.029a.555.555,0,0,0,.526-.584Z" transform="translate(1703.855 151.167)"/>
    <path id="Path_622" data-name="Path 622" class="cls-1" d="M196.92,95.4a.553.553,0,0,0-.584.526l-.729,13.955a.555.555,0,0,0,.526.584h.029a.556.556,0,0,0,.554-.527l.729-13.955A.555.555,0,0,0,196.92,95.4Z" transform="translate(1612.348 151.168)"/>
  </g>
</svg>
