<svg xmlns="http://www.w3.org/2000/svg" viewBox="13776 13675 28.179 25">
  <defs>
    <style>
      .cls-1 {
        fill: #577590;
      }
    </style>
  </defs>
  <path id="Path_623" data-name="Path 623" class="cls-1" d="M10.86,33.141v-5.1L0,38.021l10.86,9.985V43.413a20.655,20.655,0,0,1,15.95,8.464l.749,1.159.268-1.353a18.642,18.642,0,0,0,.352-3.609C28.179,38.877,21.718,33.324,10.86,33.141ZM26.934,50.2A21.733,21.733,0,0,0,10.3,42.289H9.744v3.173L1.65,38.021l8.094-7.441v3.674H10.3c10.651,0,16.76,5.038,16.76,13.821A17.614,17.614,0,0,1,26.934,50.2Z" transform="translate(13776 13646.964)"/>
</svg>
